<?xml version="1.0" encoding="UTF-8"?>
<svg version="1.1" xmlns="http://www.w3.org/2000/svg" width="1080" height="1080">
<path d="M0 0 C27.9801671 0 27.9801671 0 39.4375 1.1875 C40.42224304 1.28594711 40.42224304 1.28594711 41.42687988 1.38638306 C100.43287052 7.30955157 158.08060768 22.13542573 212 47 C213.49708496 47.68980957 213.49708496 47.68980957 215.02441406 48.39355469 C257.56344501 68.13284112 297.09126864 92.79351354 333 123 C333.53157715 123.44666016 334.0631543 123.89332031 334.61083984 124.35351562 C347.94494319 135.5862342 360.53525874 147.44454755 372.875 159.75 C373.42129059 160.29361176 373.96758118 160.83722351 374.53042603 161.39730835 C380.57295845 167.41737319 386.48374451 173.4870719 392 180 C392.94887878 181.08347152 393.89934921 182.16555161 394.8515625 183.24609375 C402.65365899 192.19080907 409.89047435 201.49949751 417 211 C417.58072266 211.77037598 418.16144531 212.54075195 418.75976562 213.33447266 C426.99360134 224.26567695 434.79304066 235.36473016 442 247 C442.47115234 247.75829102 442.94230469 248.51658203 443.42773438 249.29785156 C483.12727429 313.51145985 508.89729151 384.10213831 519.75 458.8125 C519.85114105 459.49856323 519.9522821 460.18462646 520.05648804 460.89147949 C523.32181853 483.29367467 524.3556155 505.63311671 524.31567383 528.25097656 C524.31106338 531.06949922 524.3179097 533.88758805 524.33618164 536.70605469 C524.46829634 557.31519761 523.36439613 577.52133067 521 598 C520.89767059 598.88880859 520.79534119 599.77761719 520.68991089 600.69335938 C520.15267115 605.22738485 519.51935537 609.73877364 518.8125 614.25 C518.71117767 614.90469269 518.60985535 615.55938538 518.50546265 616.23391724 C511.07850458 663.79605287 497.15914299 710.28444197 477 754 C476.54012695 754.99805664 476.08025391 755.99611328 475.60644531 757.02441406 C455.86715888 799.56344501 431.20648646 839.09126864 401 875 C400.55333984 875.53157715 400.10667969 876.0631543 399.64648438 876.61083984 C388.4137658 889.94494319 376.55545245 902.53525874 364.25 914.875 C363.70638824 915.42129059 363.16277649 915.96758118 362.60269165 916.53042603 C356.58262681 922.57295845 350.5129281 928.48374451 344 934 C342.91652848 934.94887878 341.83444839 935.89934921 340.75390625 936.8515625 C331.80919093 944.65365899 322.50050249 951.89047435 313 959 C312.22962402 959.58072266 311.45924805 960.16144531 310.66552734 960.75976562 C299.73432305 968.99360134 288.63526984 976.79304066 277 984 C276.24170898 984.47115234 275.48341797 984.94230469 274.70214844 985.42773438 C210.48854015 1025.12727429 139.89786169 1050.89729151 65.1875 1061.75 C64.50143677 1061.85114105 63.81537354 1061.9522821 63.10852051 1062.05648804 C40.70632533 1065.32181853 18.36688329 1066.3556155 -4.25097656 1066.31567383 C-7.06949922 1066.31106338 -9.88758805 1066.3179097 -12.70605469 1066.33618164 C-33.31519761 1066.46829634 -53.52133067 1065.36439613 -74 1063 C-74.88880859 1062.89767059 -75.77761719 1062.79534119 -76.69335938 1062.68991089 C-81.22738485 1062.15267115 -85.73877364 1061.51935537 -90.25 1060.8125 C-90.90469269 1060.71117767 -91.55938538 1060.60985535 -92.23391724 1060.50546265 C-139.79605287 1053.07850458 -186.28444197 1039.15914299 -230 1019 C-230.99805664 1018.54012695 -231.99611328 1018.08025391 -233.02441406 1017.60644531 C-275.56344501 997.86715888 -315.09126864 973.20648646 -351 943 C-351.53157715 942.55333984 -352.0631543 942.10667969 -352.61083984 941.64648438 C-365.94494319 930.4137658 -378.53525874 918.55545245 -390.875 906.25 C-391.42129059 905.70638824 -391.96758118 905.16277649 -392.53042603 904.60269165 C-398.57295845 898.58262681 -404.48374451 892.5129281 -410 886 C-410.94887878 884.91652848 -411.89934921 883.83444839 -412.8515625 882.75390625 C-420.65365899 873.80919093 -427.89047435 864.50050249 -435 855 C-435.58072266 854.22962402 -436.16144531 853.45924805 -436.75976562 852.66552734 C-444.99360134 841.73432305 -452.79304066 830.63526984 -460 819 C-460.47115234 818.24170898 -460.94230469 817.48341797 -461.42773438 816.70214844 C-506.41613648 743.93385851 -533.85591649 662.23096705 -541.3125 576.9375 C-541.38887695 576.07858154 -541.46525391 575.21966309 -541.54394531 574.3347168 C-542.21384736 565.51910877 -542 556.90999682 -542 548 C-363.14 548 -184.28 548 0 548 C0 367.16 0 186.32 0 0 Z " fill="#4298FA" transform="translate(549,7)"/>
</svg>
